<?xml version="1.0" encoding="UTF-8"?>
<svg id="Capa_1" xmlns="http://www.w3.org/2000/svg" version="1.1" viewBox="0 0 871 211">
  <!-- Generator: Adobe Illustrator 30.2.1, SVG Export Plug-In . SVG Version: 2.1.1 Build 1)  -->
  <defs>
    <style>
      .st0 {
        fill: #1d1d1c;
      }

      .st1 {
        fill: #e20613;
      }
    </style>
  </defs>
  <path class="st0" d="M654.03,67.52c-24.01,0-40.33,18.54-40.33,40.43s16.32,40.44,40.33,40.44c25.45,0,40.32-17.65,40.32-40.44,0-3.36-.45-6.15-.45-6.15h-38.53v15.08h20.1c-2.23,9.6-9.84,15.42-21.44,15.42-13.18,0-22.68-10.5-22.68-24.35s9.49-24.12,22.68-24.12c9.04,0,14.52,2.34,20.54,7.47l11.74-11.73c-8.5-7.81-17.54-12.05-32.28-12.05M725.72,116.99l11.51-28.03,11.51,28.03h-23.02ZM556.98,116.99l11.49-28.03,11.51,28.03h-23ZM267.72,68.86h-31.94v78.18h17.2v-62.32h13.4c8.48,0,13.85,4.36,13.85,11.96s-5.37,11.94-13.85,11.94h-4.02v15.87h5.36c18.77,0,29.93-11.51,29.93-27.81s-11.16-27.81-29.93-27.81M346.12,68.86h-35.74v78.18h17.21v-62.32h17.18c8.05,0,13.4,3.8,13.4,11.4s-5.35,11.38-13.4,11.38h-7.81v15.87l8.05,8.59c13.85,14.73,19.44,15.98,28.8,15.98,2.92,0,4.14-.24,4.14-.24v-14.73s-.79.11-1.46.11c-5.35,0-10.05-2.45-17.53-9.94l-3.03-3.01c8.83-1.46,19.67-9.73,19.67-24.46,0-17.65-12.97-26.8-29.49-26.8M413.58,68.86h-17.2v78.18h17.2v-78.18ZM515.98,68.86h-18.53l-21.22,41.32-21.22-41.32h-18.54v78.18h16.97v-48.02l17.65,32.38h10.27l17.65-32.38v48.02h16.97v-78.18ZM576.63,68.3h-16.3l-33.29,78.73h17.66l6.14-14.86h35.29l6.14,14.86h17.65l-33.29-78.73ZM745.37,68.3h-16.3l-33.27,78.73h17.64l6.14-14.86h35.29l6.14,14.86h17.65l-33.29-78.73ZM813.28,67.74c-15.98,0-29.03,8.49-29.03,22.55s9.94,20.55,26.69,24.91c14.73,3.8,16.64,5.93,16.64,10.27s-4.25,6.83-13.18,6.83c-7.71,0-14.84-2.79-21.33-8.48l-11.4,11.38c8.83,9.49,22.46,12.95,32.73,12.95,17.2,0,30.6-7.48,30.6-22.9,0-14.3-8.93-20.32-25.8-24.79-13.63-3.58-17.99-5.26-17.99-10.18,0-4.47,4.46-6.92,12.07-6.92,8.27,0,14.07,2.79,18.77,7.36l11.38-11.38c-4.92-4.92-13.77-11.62-30.15-11.62"/>
  <path class="st1" d="M151.02,107.84c0-13.95-6.48-26.36-16.58-34.44-1.46-1.17-4.6-3.86-4.6-9.05v-28.56c-5.33-1.71-10.92-2.82-16.68-3.31v40.86c0,7.8,4.06,11.57,5.89,12.6,7.67,4.31,12.87,12.47,12.87,21.9,0,13.94-11.3,25.24-25.24,25.24s-25.24-11.3-25.24-25.24c0-9.43,5.2-17.6,12.87-21.91,1.92-1.08,6.18-4.79,6.18-12.59v-40.87c-5.76.47-11.35,1.54-16.68,3.23v28.66c0,5.19-3.17,7.9-4.65,9.09-10.07,8.09-16.53,20.48-16.53,34.4,0,24.41,19.79,44.2,44.2,44.2s44.2-19.79,44.2-44.2M182.37,107.84c0-28.93-16.25-54.05-40.1-66.79v22.49c12.98,10.4,21.32,26.37,21.32,44.3,0,31.35-25.42,56.76-56.76,56.76s-56.76-25.41-56.76-56.76c0-17.8,8.21-33.68,21.04-44.08v-22.7c-23.85,12.73-40.1,37.85-40.1,66.79,0,41.8,33.88,75.69,75.68,75.69s75.69-33.89,75.69-75.69"/>
</svg>